# xmcd
#
# Track frame offsets:
#	150
#	11586
#	32899
#	43519
#	61679
#	73467
#	89388
#	107997
#	123584
#	139311
#	156694
#	173736
#	185472
#	198641
#	211215
#	227552
#
# Disc length: 3283 seconds
#
# Revision: 0
# Processed by: cddbd v1.5.1PL0 Copyright (c) Steve Scherf et al.
# Submitted via: dBpowerAMP V4.0
#
DISCID=ee0cd110
DTITLE=Various Artist - 16 GReat Southern Gospel Classics Volume 5
DYEAR=1900
DGENRE=Country Gospel
TTITLE0=I'm getting Ready to Leave This World
TTITLE1=That I Could Still go Free
TTITLE2=Old Country Church
TTITLE3=He Grew the Tree
TTITLE4=Do You Know How It Feels
TTITLE5=Hallelujah Square
TTITLE6=The Blood Will Never Loose It's Power
TTITLE7=Come Spring
TTITLE8=I Go to the Rock
TTITLE9=Antiock Church Choir
TTITLE10=Unfininshed Task
TTITLE11=Church In the Wildwood
TTITLE12=The Sun's Coming Up In the Morning
TTITLE13=Until Then
TTITLE14=Till the Storm Passes By
TTITLE15=Serenaded by Angels
EXTD=
EXTT0=
EXTT1=
EXTT2=
EXTT3=
EXTT4=
EXTT5=
EXTT6=
EXTT7=
EXTT8=
EXTT9=
EXTT10=
EXTT11=
EXTT12=
EXTT13=
EXTT14=
EXTT15=
PLAYORDER=
